<?xml version="1.0" encoding="UTF-8" standalone="no"?>
<!-- Created with Inkscape (http://www.inkscape.org/) -->

<svg
   xmlns:dc="http://purl.org/dc/elements/1.1/"
   xmlns:cc="http://creativecommons.org/ns#"
   xmlns:rdf="http://www.w3.org/1999/02/22-rdf-syntax-ns#"
   xmlns:svg="http://www.w3.org/2000/svg"
   xmlns="http://www.w3.org/2000/svg"
   xmlns:sodipodi="http://sodipodi.sourceforge.net/DTD/sodipodi-0.dtd"
   xmlns:inkscape="http://www.inkscape.org/namespaces/inkscape"
   version="1.1"
   id="svg10"
   xml:space="preserve"
   width="191.74414"
   height="191.74414"
   viewBox="0 0 191.74415 191.74414"
   sodipodi:docname="icon.svg"
   inkscape:version="0.92.3 (2405546, 2018-03-11)"><metadata
     id="metadata16"><rdf:RDF><cc:Work
         rdf:about=""><dc:format>image/svg+xml</dc:format><dc:type
           rdf:resource="http://purl.org/dc/dcmitype/StillImage" /><dc:title></dc:title></cc:Work></rdf:RDF></metadata><defs
     id="defs14" /><sodipodi:namedview
     pagecolor="#ffffff"
     bordercolor="#666666"
     borderopacity="1"
     objecttolerance="10"
     gridtolerance="10"
     guidetolerance="10"
     inkscape:pageopacity="0"
     inkscape:pageshadow="2"
     inkscape:window-width="2880"
     inkscape:window-height="1675"
     id="namedview12"
     showgrid="false"
     inkscape:zoom="2.437498"
     inkscape:cx="306.23217"
     inkscape:cy="159.2938"
     inkscape:window-x="-13"
     inkscape:window-y="-13"
     inkscape:window-maximized="1"
     inkscape:current-layer="g18" /><g
     id="g18"
     inkscape:groupmode="layer"
     inkscape:label="Greedy Pig Menu April 2017"
     transform="matrix(1.3333333,0,0,-1.3333333,-9.6022954e-7,191.74412)"><g
       id="g2022"><path
         inkscape:connector-curvature="0"
         id="path26"
         style="fill:#e8b09f;fill-opacity:1;fill-rule:evenodd;stroke:none"
         d="m 80.976192,38.383205 c 24.561298,0 44.472198,-7.2406 44.472198,-16.172 0,-8.931399 -19.9109,-16.1715994 -44.472198,-16.1715994 -24.5611,0 -44.4722,7.2402004 -44.4722,16.1715994 0,8.9314 19.9111,16.172 44.4722,16.172" /><path
         inkscape:connector-curvature="0"
         id="path122"
         style="fill:#e8b09f;fill-opacity:1;fill-rule:evenodd;stroke:none"
         d="m 107.04439,86.458505 c 0.8238,-1.9911 2.3811,-0.4865 5.3547,-7.2953 -1.9661,-1.9287 -3.8115,-3.2445 -6.0849,-5.1522 -0.8325,1.0145 -0.9788,2.3544 -1.6166,3.7494 -0.6865,1.5009 -1.2186,2.1931 -1.9392,3.3601 l -0.481,-0.1173 c -1.0636,-0.0448 -0.3512,-0.7277 -0.9193,4.2636 -0.1876,1.65 -0.4467,1.8623 0.0717,3.4316 0.37,1.1188 1.1359,1.7844 0.8859,2.3579 -0.017,-0.2775 -0.089,-0.9873 -0.0193,-1.232 0.3747,-1.3169 -0.0536,-0.5831 0.7872,-1.5052 1.6826,5.0531 1.5624,0.7557 2.281,4.3756 l -2.1674,0.3478 c 1.0367,5.8399 6.9412,9.320005 9.1588,5.0607 3.1308,-6.0134 -1.9358,-9.2874 -5.3116,-11.6447" /><path
         inkscape:connector-curvature="0"
         id="path124"
         style="fill:#e8b09f;fill-opacity:1;fill-rule:evenodd;stroke:none"
         d="m 28.985392,88.603405 c 3.3638,-1.3838 5.0819,-7.9089 6.2725,-10.8986 -4.8606,1.3221 -5.6203,6.6214 -6.2725,10.8986" /><path
         inkscape:connector-curvature="0"
         id="path126"
         style="fill:#e8b09f;fill-opacity:1;fill-rule:evenodd;stroke:none"
         d="m 85.425392,45.627705 1.5871,-1.0622 c 2.9455,-1.5168 3.269,-0.7503 4.9343,-1.1024 1.0287,-0.2177 0.1984,0.1894 0.8031,-0.3288 -0.5542,-0.3869 -0.6058,-0.3634 -2.2743,-0.1871 l -7.6957,1.2977 c -2.0685,-1.6662 -4.3169,-3.1405 -8.3302,-3.0991 -1.6815,0.0173 -3.7389,0.538 -5.3422,-0.0947 -1.4601,-0.5763 -1.2098,-1.6387 -3.5098,-2.6158 l 0.9238,1.3547 c 0.4844,0.8107 0.3574,0.4884 0.7441,1.5979 -2.9753,0.6865 -3.8268,2.3978 -5.2405,4.1173 -1.2631,1.5367 -8.2581,5.6869 -4.2627,12.8543 2.3879,4.2834 1.5514,14.9213 13.9793,14.9085 6.5399,-0.007 8.9638,-4.8804 13.3008,-6.7357 -1.1634,2.2655 -1.3947,1.3901 -2.734,2.7743 -2.6765,2.7658 -1.611,5.8612 -10.7927,6.1951 3.7395,1.6024 7.414,-0.5218 9.851,-3.0058 1.5846,-1.6152 1.7079,-2.1657 3.3049,-3.6703 1.7617,-1.6603 2.3176,-1.7382 3.1371,-4.1434 1.1254,-3.3021 3.6068,-5.0596 3.2468,-10.1926 -0.3016,-4.3047 -3.1005,-7.9602 -5.6302,-8.8619" /><path
         inkscape:connector-curvature="0"
         id="path128"
         style="fill:#e8b09f;fill-opacity:1;fill-rule:evenodd;stroke:none"
         d="m 55.268792,57.917305 c 3.1056,4.4419 -2.0143,8.5833 5.919,13.9195 1.427,0.9595 2.1263,1.6427 3.8412,2.2589 -1.9176,-1.6339 -4.8418,-3.9214 -6.2441,-6.1622 -2.357,-3.7667 0.7273,-6.9775 -3.5161,-10.0162" /><path
         inkscape:connector-curvature="0"
         id="path130"
         style="fill:#e8b09f;fill-opacity:1;fill-rule:evenodd;stroke:none"
         d="m 26.580192,89.172905 c -1.2212,0.3362 -5.4899,-1.1256 -6.6549,-1.656 l -6.0996,-3.1104 c 0.7126,-1.5004 1.461,-2.2981 2.2875,-3.7055 0.4978,-2.5256 1.7022,-6.1112 0.5644,-8.1958 -1.2889,7.2822 -2.609,12.2315 -9.2998997,12.5787 0.239,-0.4716 -0.2645,-0.4379 1.427,-1.9332 l 1.8092997,-1.4184 c 4.0337,-5.8638 3.0997,-15.38 9.6769,-22.7192 2.3247,-2.5939 7.9597,-5.1828 12.5842,-3.5376 4.8645,1.7308 5.1704,4.6879 7.9713,8.6516 l -0.7152,-3.4327 2.2929,1.7699 c 2.2816,1.4607 6.0135,2.8871 8.4569,3.9269 -0.7931,-1.3774 -0.1162,-0.5562 -1.5012,-1.4809 -2.0463,-1.3665 -3.8849,-1.8226 -5.2186,-2.7498 -2.0086,-1.3972 -3.7899,-3.2639 -4.6842,-6.2553 -1.9148,-6.4037 2.0894,-12.3502 6.6543,-14.2826 l -0.32,2.9922 c 0.2911,-0.2885 0.3211,-0.3016 0.5836,-0.8172 1.55,-3.0433 1.0497,-3.615 4.5077,-9.2219 1.864,-3.0226 4.8285,-5.6509 8.1501,-7.4228 7.2732,-3.8804 17.9581,-5.7062 26.1635,-4.3679 6.8429,1.1162 9.9437,3.5345 13.5607,6.9891 1.966098,1.8776 2.857298,3.2218 4.516398,5.633 0.7889,1.1463 1.459,2.1449 2.2284,2.853 4.2522,3.9155 9.8614,8.1083 8.4072,17.3563 -2.7592,17.545 -18.187598,11.7397 -24.722098,17.1833 6.1266,-1.665 12.390298,-1.7849 16.928598,-3.6226 2.0769,-0.8411 2.9247,-1.8647 4.2718,-2.6434 -0.6838,4.2387 -1.6966,3.4447 -5.3028,5.044 -4.6381,2.0568 -3.439,4.9487 -3.1487,6.6841 0.7823,-1.493 0.6687,-3.3965 2.4298,-4.7786 1.1999,-0.9414 3.795,-1.4877 5.4562,-2.4792 5.1156,-3.0544 5.1888,-6.5886 8.3678,-6.9412 1.9551,2.1356 3.9898,6.4292 4.8799,10.1798 l -0.0854,-0.0247 c 1.524,0.1899 0.847,-0.0947 1.1594,1.4856 l 0.7294,8.1284 c 0.1536,4.0547 -0.7674,5.6174 -1.2229,8.9915 l 1.5883,0.299 c -0.7589,3.7202 -0.5755,5.3788 -0.169,8.984705 l -1.6129,-0.229 c 0.6568,2.9075 1.4811,4.1505 2.9832,6.0571 0.8209,1.0417 1.1619,1.3478 2.0194,2.2541 0.7327,0.7744 1.2991,1.2203 1.5559,2.3641 -6.1203,-0.1491 -9.1423,-3.7307 -13.6247,-5.2424 -4.1244,-1.391 -12.6907,-0.0723 -14.7209,-3.7117 -2.304298,-0.4754 -5.078298,-1.2243 -5.586198,-3.803305 -0.98,0.915905 -0.2911,-0.3123 -0.6299,0.978305 -0.1859,0.7081 -0.0502,0.5802 0.1715,1.3445 -0.4694,-0.3683 -0.246,-0.1528 -0.7081,-0.7124 -0.1573,-0.1905 -0.417,-0.5632 -0.5241,-0.72 -2.6425,-3.861105 -1.156,-1.613805 -3.4937,-3.983005 l -2.7085,1.3071 0.2007,-1.4051 -4.3501,1.4992 c -0.4362,0.9536 -0.2205,0.1894 -0.2344,1.6135 -0.8195,1.029005 -3.9458,0.945905 -5.379,0.915605 l -1.5528,-0.1868 c -0.1114,-0.0196 -0.2574,-0.0505 -0.3816,-0.0924 l -7.4199,-2.634605 c -0.8876,0.0774 -6.0308,1.4888 -9.0882,-0.979 0.8739,-0.3827 1.0806,0.8413 0.627,-1.6175 l -0.0949,0.2387 c -1.0866,-0.6412 -1.9344,-1.1962 -2.765,-1.9159 -1.0082,-0.8743 -1.368,-1.5585 -2.4641,-2.2292 l 0.1913,2.0404 c -0.6049,-0.4306 -1.3547,-1.0131 -2.0321,-1.5594 -0.639,-0.5153 -1.1174,-0.9581 -1.935,-1.4941 -0.5025,-0.33 -3.7133,-2.4457 -3.7133,-2.4457 l -1.5052,0.432 c -3.0184,0.7846 -1.1946,1.7237 -4.9465,3.8434 -0.798,0.4508 -1.7821,0.7583 -2.5143,1.3133 -2.956,0.3807 -6.4905,1.6776 -9.955,1.8596 l -0.0119,-1.323 c -1.6733,0.0505 -3.3262,0.08 -4.9788,-0.1664 -1.7167,-0.2556 -2.6575,-0.8401 -4.1105,-1.0834 l 1.1423,2.0574 c -8.2791,-3.6249 -4.4022,-1.7458 -9.7823,-3.5767 -0.1021,-0.0349 -0.2509,-0.0828 -0.3665,-0.1449 l 1.6339,-0.007 c -0.2917,-1.7802 0.4178,-1.4463 -1.7493,-1.6512 l 0.0249,1.6001 -9.0191997,-0.3946 c 2.8927,-0.1187 1.4289,-0.2749 2.0392,-0.8393 -0.6389,-1.0307 -0.1009,-0.214 -1.0502,-0.9116 -2.15780003,-1.5854 0.3004,0.9136 -0.8167,-0.5256 1.7796,-1.9054 2.0024,-2.3533 6.6861,-2.3564 2.0706997,-0.001 2.1349997,0.3393 4.2966997,0.1488 3.6085,-0.318 5.4536,1.7671 7.1048,3.1113 1.5625,1.2722 6.1101,2.4869 8.9821,1.2722 l 0.4386,-1.6543 -2.7808,0.4113 z m 70.6541,-13.7934 c -1.1696,-0.9688 -0.2285,-0.7511 -2.0809,-0.7608 -3.356,1.8817 -2.1201,0.0156 -5.6911,-0.3486 0.0717,0.0875 0.1938,0.3245 0.2284,0.2514 l 1.9276,1.5834 0.3073,2.5676 c 1.2733,1.7417 1.0244,1.4933 3.41,1.5784 l 2.7233,-0.7362 c -0.4178,-1.1415 -0.2554,-0.0674 -0.3946,-1.7668 -0.1165,-1.4267 0.2364,-0.8297 -0.43,-2.3684 z m 16.934398,25.905005 c -2.0293,-0.4558 -3.2672,-1.1812 -4.7727,-0.2214 l 1.0205,0.593 c 0.2744,0.1086 0.6132,0.1786 0.9048,0.2537 11.429,2.9484 7.9393,4.1517 11.5291,5.1075 -0.6885,-1.946 -1.474,-2.9962 -2.0492,-5.4853 l -0.7132,0.0541 0.5434,2.5722 c -1.1885,-0.4762 -1.8949,-1.1875 -3.1589,-1.7731 -1.1018,-0.5105 -2.1047,-0.7271 -3.3038,-1.1007 z m -66.663998,-21.520605 0.1428,0.2486 c -0.0331,-2.0084 0.0641,-0.7863 -0.3727,-1.194 -4.2089,0.1885 -4.4345,-1.5222 -6.6756,-1.36 l -0.2027,0.7248 c 0.7152,0.2423 0.6781,0.1899 1.0692,0.7339 2.185,0.8079 3.2137,1.8998 6.039,0.8467 z m -10.1404,-2.2521 c 1.694,-3.3838 3.198,-0.8623 3.6791,-4.0635 -2.5503,0.3487 -4.6729,2.4299 -5.0596,4.1462 l 1.1566,-0.1295 z" /><path
         inkscape:connector-curvature="0"
         id="path132"
         style="fill:#e8b09f;fill-opacity:1;fill-rule:evenodd;stroke:none"
         d="m 49.460292,70.155605 c -1.4244,-0.2217 -2.7578,-0.6322 -4.0586,-1.1242 -1.8987,-0.7186 -2.1725,-1.1929 -3.5947,-1.882 0.7634,2.4418 1.4038,0.3467 2.0648,3.1244 0.3699,1.5542 0.5587,2.9565 1.2178,4.0056 2.8009,0.438 2.2532,-0.68 4.8588,-2.1829 1.6197,-0.9343 0.8107,0.119 1.5373,-1.2357 -1.029,-0.4399 -0.8689,-0.1306 -2.3695,0.007 l 0.2276,-0.191 c 0.5851,-1.0871 0.7543,0.5924 0.1165,-0.521" /><path
         inkscape:connector-curvature="0"
         id="path134"
         style="fill:#000000;fill-opacity:1;fill-rule:evenodd;stroke:none"
         d="m 27.855792,23.965905 c 1.4048,0.0425 4.1023,-0.5375 4.8662,-2.5654 1.5792,-4.191 1.6807,-3.4506 2.4795,-5.369699 -1.4219,-1.5063 -3.3863,-2.4808 -6.6243,-1.9981 -2.9163,0.4346 -3.4603,2.093699 -4.3654,4.600099 -1.3391,3.7071 -2.7059,13.0113 1.5588,14.3277 1.3317,0.411 2.5758,0.0643 3.96,0.0981 2.2,0.0535 5.8978,2.3533 10.2677,-2.2944 1.0595,-1.1268 5.8385,-9.4703 5.3214,-11.9721 -1.1914,-2.935899 -10.2795,-5.150299 -11.6682,3.132 l 2.0752,2.6283 c -1.1749,-0.6438 -1.7311,-1.5095 -3.3763,-1.2952 -1.8247,0.2378 -2.0877,0.8127 -4.4946,0.7087 z m -26.1753997,66.5506 -1.63050003,-0.4507 c 0.001,-2.2663 -0.279,-0.4697 0.477,-2.0772 0.1324,-0.2815 0.58620003,-1.0318 0.83200003,-1.4099 1.0307,-1.5863 1.7059,-1.3757 3.2202,-1.9338 3.6079,-1.3295 3.5623,-2.0149 5.7242997,-4.1885 -0.0154,-1.0347 2.6418,-9.2344 3.2127,-11.3596 1.9477,-7.251 6.2595,-14.9312 14.7623,-15.5352 4.8626,-0.3453 9.4827,2.6657 10.1319,4.6573 -0.0666,-1.8916 -0.4391,-1.8148 -1.5928,-2.632 -5.4836,-3.8852 -8.2735,-8.8532 -9.8425,-15.7113 -0.4603,-2.0117 -0.2321,-2.5566 -1.3215,-3.8971 -1.4335,-1.7643 -0.6449,-1.3297 -2.0951,-2.9883 -3.5855,-4.1006 -1.9683,-11.624 -0.2741,-15.925 1.19,-3.021399 1.9792,-4.207199 5.9936,-4.388899 4.5893,-0.2078 5.0335,1.3312 7.1461,2.7579 3.7591,-1.9265 9.7181,0.858599 10.408,3.193699 0.489,1.6552 -1.256,3.744 -1.654,5.4437 -0.5766,2.4616 0.8235,4.7531 1.4406,6.7873 2.501,-1.2385 4.4696,-2.6192 7.5279,-3.6666 1.4749,-0.5052 2.9832,-0.6818 4.4354,-1.1878 1.3399,-0.4671 2.6402,-1.2554 4.0683,-1.8756 15.1673,-6.5866 22.6755,-1.6257 29.0801,-2.8273 3.5594,-0.6679 5.6366,-2.0313 9.704398,-1.9772 7.6787,0.1018 11.044,4.7651 16.8791,4.8648 -1.3354,-9.514999 6.38,-7.8596 7.7389,-6.8706 0.8966,-2.116299 2.3553,-2.856199 5.7019,-3.131699 2.7675,-0.2279 4.2965,1.5622 5.633,2.913699 2.5739,2.6034 5.7399,5.8391 6.3337,11.3327 0.5922,5.4748 -1.8765,9.2112 -6.4437,10.5732 -4.9592,1.4786 -10.4799,1.889 -14.2424,-0.269 -1.9907,2.3961 -3.8625,3.8568 -4.2647,5.4612 -0.7342,2.9282 -2.4797,5.6611 -2.6388,7.579 -0.5697,6.8797 -3.1623,10.0233 -4.3716,15.9344 3.8158,-3.5039 6.3179,-11.0214 11.9421,3.6887 1.2648,3.3086 2.2445,6.9443 2.5716,10.7898 0.4125,4.847 -0.6945,6.9217 -1.0156,10.9318 l -1.5883,-0.299 c 0.4555,-3.3741 1.3765,-4.9368 1.2229,-8.9915 l -0.7294,-8.1284 c -0.3124,-1.5803 0.3646,-1.2957 -1.1594,-1.4856 l 0.0854,0.0247 c -0.8901,-3.7506 -2.9248,-8.0442 -4.8799,-10.1798 -3.179,0.3526 -3.2522,3.8868 -8.3678,6.9412 -1.6612,0.9915 -4.2563,1.5378 -5.4562,2.4792 -1.7611,1.3821 -1.6475,3.2856 -2.4298,4.7786 -0.2903,-1.7354 -1.4894,-4.6273 3.1487,-6.6841 3.6062,-1.5993 4.619,-0.8053 5.3028,-5.044 -1.3471,0.7787 -2.1949,1.8023 -4.2718,2.6434 -4.5383,1.8377 -10.801998,1.9576 -16.928598,3.6226 6.5345,-5.4436 21.962898,0.3617 24.722098,-17.1833 1.4542,-9.248 -4.155,-13.4408 -8.4072,-17.3563 -0.7694,-0.7081 -1.4395,-1.7067 -2.2284,-2.853 -1.6591,-2.4112 -2.5503,-3.7554 -4.516398,-5.633 -3.617,-3.4546 -6.7178,-5.8729 -13.5607,-6.9891 -8.2054,-1.3383 -18.8903,0.4875 -26.1635,4.3679 -3.3216,1.7719 -6.2861,4.4002 -8.1501,7.4228 -3.458,5.6069 -2.9577,6.1786 -4.5077,9.2219 -0.2625,0.5156 -0.2925,0.5287 -0.5836,0.8172 l 0.32,-2.9922 c -4.5649,1.9324 -8.5691,7.8789 -6.6543,14.2826 0.8943,2.9914 2.6756,4.8581 4.6842,6.2553 1.3337,0.9272 3.1723,1.3833 5.2186,2.7498 1.385,0.9247 0.7081,0.1035 1.5012,1.4809 -2.4434,-1.0398 -6.1753,-2.4662 -8.4569,-3.9269 l -2.2929,-1.7699 0.7152,3.4327 c -2.8009,-3.9637 -3.1068,-6.9208 -7.9713,-8.6516 -4.6245,-1.6452 -10.2595,0.9437 -12.5842,3.5376 -6.5772,7.3392 -5.6432,16.8554 -9.6769,22.7192 l -1.8092997,1.4184 c -1.6915,1.4953 -1.188,1.4616 -1.427,1.9332 6.6908997,-0.3472 8.0109997,-5.2965 9.2998997,-12.5787 1.1378,2.0846 -0.0666,5.6702 -0.5644,8.1958 -0.8265,1.4074 -1.5749,2.2051 -2.2875,3.7055 l 6.0996,3.1104 c 1.165,0.5304 5.4337,1.9922 6.6549,1.656 l 2.7808,-0.4113 -0.4386,1.6543 c -2.872,1.2147 -7.4196,0 -8.9821,-1.2722 -1.6512,-1.3442 -3.4963,-3.4293 -7.1048,-3.1113 -2.1617,0.1905 -2.226,-0.1502 -4.2966997,-0.1488 -4.6837,0.003 -4.9065,0.451 -6.6861,2.3564 1.1171,1.4392 -1.34110003,-1.0598 0.8167,0.5256 0.9493,0.6976 0.4113,-0.1191 1.0502,0.9116 -0.6103,0.5644 0.8535,0.7206 -2.0392,0.8393 z M 137.19119,18.811905 c 0.3705,1.4125 0.896,1.9338 0.9992,3.693 0.1502,2.5585 0.21,6.0622 2.8094,8.6706 l 1.0613,0.8067 c 0.0643,0.1659 0.2129,0.1364 0.3257,0.1928 0.1678,-3.2811 0.2049,-5.3096 -1.1109,-8.3021 -1.0324,-2.3479 -2.6697,-3.5688 -4.0847,-5.061 z m -111.150698,15.4945 c 0.8036,2.1166 0.8427,0.5269 1.5548,2.374 0.2264,0.5876 0.5439,2.5189 0.752,3.3077 1.2492,4.7367 4.2332,12.172 9.2253,13.9649 -0.748,-6.0497 2.6694,-10.2308 7.2267,-13.4467 3.0285,-2.1376 4.248,-6.3193 8.9946,-11.6399 -5.2172,1.3808 -10.4499,5.6132 -12.3987,9.2305 0.7571,-3.4688 2.5951,-4.3464 4.079,-6.3448 -0.2165,-0.7696 -0.4884,-1.5707 -0.7557,-2.4268 -0.0913,-0.2931 -0.2993,-0.9912 -0.4079,-1.233 -0.5939,-1.3218 -0.2256,-0.5721 -0.6928,-1.0965 -0.413,1.4502 -1.7904,3.1536 -2.6181,4.2908 -4.3089,5.9219 -8.2508,2.6402 -14.9592,3.0198 z m 93.798398,-6.442 c 1.0618,13.0337 8.4407,11.8595 16.6762,10.0561 2.7366,-0.5989 4.17,-2.3881 5.1945,-4.1068 -0.5295,-0.9918 -1.7447,-2.1418 -2.5503,-3.4223 -0.9655,-1.5341 -1.2581,-2.6197 -1.7487,-4.3324 -0.1043,-0.0465 -0.2571,-0.097 -0.3235,-0.114 -0.0584,-0.0147 -0.2216,-0.0794 -0.286,-0.093 l -0.7072,0.0309 c 2.4369,-3.5274 -0.559,-8.3126 -2.6501,-10.425799 -2.1702,-0.0743 -4.3212,0.5678 -5.8465,1.408299 -0.4907,2.9687 0.2903,3.0982 1.1903,5.8322 0.8382,2.547 1.6602,2.31 3.3097,3.6927 l -3.172,-0.5391 -1.6818,1.6041 c 0.9805,-2.2359 1.8196,-3.6227 0.1188,-6.4389 -3.3868,-5.608599 -9.561,-3.4222 -7.5495,3.5402 0.8425,2.916 1.9919,3.4673 3.8937,4.5938 -2.09,0.002 -2.3786,-0.684 -3.8676,-1.286 z m -28.349298,-5.1772 c 4.3251,3.0665 2.1404,0.7052 7.4911,5.1936 2.856198,2.3958 3.519198,3.6028 5.720598,6.7493 4.4861,6.4114 6.666,5.8771 8.8903,9.7707 l 2.0347,4.2886 c 3.009,-4.5182 1.4854,-7.1195 2.6204,-11.359 l 0.7959,3.7973 c 1.9151,-0.8422 1.497,-1.5616 2.8579,-3.1695 -1.1968,-3.272 -3.672,-4.8446 -3.4222,-12.048 -5.3241,-0.7668 -7.2054,-3.1011 -12.0076,-4.4402 -6.951398,-1.9384 -8.793598,-0.0122 -14.981098,1.2172" /><path
         inkscape:connector-curvature="0"
         id="path136"
         style="fill:#e8b09f;fill-opacity:1;fill-rule:evenodd;stroke:none"
         d="m 64.190292,55.753305 c -0.0105,-1.8275 0.1357,-1.8731 0.8552,-3.1107 -1.6929,0.8305 -2.5878,1.699 -2.2703,4.2919 0.2483,2.0271 0.9428,3.9376 2.8052,4.127 0.5196,-0.9298 1.542,-3.5901 1.6154,-4.3628 z m 14.0414,6.7354 c 2.1792,0.6182 3.1768,0.847 4.695,-0.6814 1.0086,-1.0154 1.9043,-2.4231 2.211,-4.1298 -1.6815,2.0134 -1.8777,2.8199 -3.8114,3.2796 -0.3317,-0.799 -0.1735,-3.9617 -1.9075,-2.6495 -0.8002,0.6058 -1.4482,2.8012 -1.1871,4.1811 z m -8.2341,9.434 c -9.3008,-1.0959 -8.322,-8.7764 -10.1668,-12.6204 -4.3707,-9.1072 0.1588,-8.8693 3.0674,-12.6584 1.2209,-1.5905 2.6626,-4.7098 7.7358,-4.1661 2.6742,0.2866 3.4214,1.6866 5.1675,2.509 2.8486,1.341 7.5745,-1.2609 11.3188,3.3171 2.3391,2.8601 3.3494,7.5319 1.6857,11.7566 -1.6684,4.2364 -3.8707,4.8099 -7.5665,7.5654 -3.0104,2.2448 -6.0491,4.9085 -11.2419,4.2968" /><path
         inkscape:connector-curvature="0"
         id="path138"
         style="fill:#e8b09f;fill-opacity:1;fill-rule:evenodd;stroke:none"
         d="m 119.83889,27.864405 c 1.489,0.602 1.7776,1.2877 3.8676,1.286 -1.9018,-1.1265 -3.0512,-1.6778 -3.8937,-4.5938 -2.0115,-6.9624 4.1627,-9.148799 7.5495,-3.5402 1.7008,2.8162 0.8617,4.203 -0.1188,6.4389 l 1.6818,-1.6041 3.172,0.5391 c -1.6495,-1.3827 -2.4715,-1.1457 -3.3097,-3.6927 -0.9,-2.734 -1.681,-2.8635 -1.1903,-5.8322 1.5253,-0.840499 3.6763,-1.482599 5.8465,-1.408299 2.0911,2.113199 5.087,6.898399 2.6501,10.425799 l 0.7072,-0.0309 c 0.0644,0.0136 0.2276,0.0783 0.286,0.093 0.0664,0.017 0.2192,0.0675 0.3235,0.114 0.4906,1.7127 0.7832,2.7983 1.7487,4.3324 0.8056,1.2805 2.0208,2.4305 2.5503,3.4223 -1.0245,1.7187 -2.4579,3.5079 -5.1945,4.1068 -8.2355,1.8034 -15.6144,2.9776 -16.6762,-10.0561" /><path
         inkscape:connector-curvature="0"
         id="path140"
         style="fill:#e8b09f;fill-opacity:1;fill-rule:evenodd;stroke:none"
         d="m 91.489592,22.687205 c 6.1875,-1.2294 8.0297,-3.1556 14.981098,-1.2172 4.8022,1.3391 6.6835,3.6734 12.0073,4.4402 -0.2495,7.2034 2.2257,8.776 3.4225,12.048 -1.3609,1.6079 -0.9425,2.3273 -2.8579,3.1695 l -0.7959,-3.7973 c -1.135,4.2395 0.3886,6.8408 -2.6204,11.359 l -2.0347,-4.2886 c -2.2243,-3.8936 -4.4042,-3.3593 -8.8903,-9.7707 -2.2014,-3.1465 -2.8644,-4.3535 -5.720598,-6.7493 -5.3507,-4.4884 -3.166,-2.1271 -7.4911,-5.1936" /><path
         inkscape:connector-curvature="0"
         id="path142"
         style="fill:#e8b09f;fill-opacity:1;fill-rule:evenodd;stroke:none"
         d="m 27.855792,23.965905 c 2.4069,0.104 2.6699,-0.4709 4.4946,-0.7087 1.6452,-0.2143 2.2014,0.6514 3.3763,1.2952 l -2.0752,-2.6283 c 1.3887,-8.282299 10.4768,-6.067899 11.6682,-3.132 0.5171,2.5018 -4.2619,10.8453 -5.3214,11.9721 -4.3699,4.6477 -8.0677,2.3479 -10.2677,2.2944 -1.3842,-0.0338 -2.6283,0.3129 -3.96,-0.0981 -4.2647,-1.3164 -2.8979,-10.6206 -1.5588,-14.3277 0.9051,-2.5064 1.4491,-4.165499 4.3654,-4.600099 3.238,-0.4827 5.2024,0.4918 6.6243,1.9981 -0.7988,1.919099 -0.9003,1.178699 -2.4795,5.369699 -0.7639,2.0279 -3.4614,2.6079 -4.8662,2.5654" /><path
         inkscape:connector-curvature="0"
         id="path144"
         style="fill:#e8b09f;fill-opacity:1;fill-rule:evenodd;stroke:none"
         d="m 26.040492,34.306405 c 6.7084,-0.3796 10.6503,2.9021 14.9592,-3.0198 0.8277,-1.1372 2.2051,-2.8406 2.6184,-4.2908 0.4669,0.5244 0.0984,-0.2253 0.6925,1.0965 0.1086,0.2418 0.3166,0.9399 0.4082,1.233 0.267,0.8561 0.5389,1.6572 0.7557,2.4268 -1.4842,1.9984 -3.3222,2.876 -4.0793,6.3448 1.9488,-3.6173 7.1815,-7.8497 12.3987,-9.2305 -4.7466,5.3206 -5.9661,9.5023 -8.9946,11.6399 -4.5573,3.2159 -7.9747,7.397 -7.2267,13.4467 -4.9921,-1.7929 -7.9761,-9.2282 -9.2253,-13.9649 -0.2081,-0.7888 -0.5256,-2.7201 -0.752,-3.3077 -0.7121,-1.8471 -0.7512,-0.2574 -1.5548,-2.374" /><path
         inkscape:connector-curvature="0"
         id="path146"
         style="fill:#000000;fill-opacity:1;fill-rule:evenodd;stroke:none"
         d="m 69.997592,71.922705 c 5.1928,0.6117 8.2315,-2.052 11.2419,-4.2968 3.6958,-2.7555 5.8981,-3.329 7.5665,-7.5654 1.6637,-4.2247 0.6534,-8.8965 -1.6857,-11.7566 -3.7443,-4.578 -8.4702,-1.9761 -11.3188,-3.3171 -1.7461,-0.8224 -2.4933,-2.2224 -5.1675,-2.509 -5.0732,-0.5437 -6.5149,2.5756 -7.7358,4.1661 -2.9086,3.7891 -7.4381,3.5512 -3.0674,12.6584 1.8448,3.844 0.866,11.5245 10.1668,12.6204 z m 22.7523,-28.7884 c -0.6047,0.5182 0.2256,0.1111 -0.8031,0.3288 -1.6653,0.3521 -1.9888,-0.4144 -4.9343,1.1024 l -1.5871,1.0622 c 2.5297,0.9017 5.3286,4.5572 5.6302,8.8619 0.36,5.133 -2.1214,6.8905 -3.2468,10.1926 -0.8195,2.4052 -1.3754,2.4831 -3.1371,4.1434 -1.597,1.5046 -1.7203,2.0551 -3.3049,3.6703 -2.437,2.484 -6.1115,4.6082 -9.851,3.0058 9.1817,-0.3339 8.1165,-3.4293 10.7927,-6.1951 1.3393,-1.3842 1.5706,-0.5088 2.734,-2.7743 -4.337,1.8553 -6.7609,6.7292 -13.3008,6.7357 -12.4279,0.0128 -11.5914,-10.6251 -13.9793,-14.9085 -3.9954,-7.1674 2.9996,-11.3176 4.2627,-12.8543 1.4137,-1.7195 2.2652,-3.4308 5.2405,-4.1173 -0.3867,-1.1095 -0.2597,-0.7872 -0.7441,-1.5979 l -0.9238,-1.3547 c 2.3,0.9771 2.0497,2.0395 3.5098,2.6158 1.6033,0.6327 3.6607,0.112 5.3422,0.0947 4.0133,-0.0414 6.2617,1.4329 8.3304,3.0991 l 7.6955,-1.2977 c 1.6685,-0.1763 1.7201,-0.1998 2.2743,0.1871" /><path
         inkscape:connector-curvature="0"
         id="path148"
         style="fill:#000000;fill-opacity:1;fill-rule:evenodd;stroke:none"
         d="m 95.644592,102.11881 c -0.2217,-0.7643 -0.3574,-0.6364 -0.1715,-1.3445 0.3388,-1.290605 -0.3501,-0.0624 0.6299,-0.978305 0.5079,2.579005 3.2819,3.327905 5.586198,3.803305 2.0302,3.6394 10.5965,2.3207 14.7209,3.7117 4.4824,1.5114 7.5044,5.0933 13.6247,5.2424 -0.2568,-1.1438 -0.8232,-1.5897 -1.5559,-2.3641 -0.8575,-0.9063 -1.1985,-1.2124 -2.0194,-2.2541 -1.5021,-1.9066 -2.3264,-3.1496 -2.9832,-6.0571 l 1.6129,0.229 c 0.9641,4.8045 6.9497,8.3002 6.3714,11.4183 -5.9567,1.6999 -12.4602,-4.6667 -17.9985,-5.3533 -3.7684,-0.4671 -6.916,-0.324 -10.2116,-1.6854 -1.6191,-0.669 -2.5772,-1.5336 -3.945498,-2.1433 -1.0287,-0.4584 -1.1702,-0.3433 -2.0727,-0.9873 -0.7166,-0.5111 -0.7929,-0.7861 -1.5877,-1.2373" /><path
         inkscape:connector-curvature="0"
         id="path150"
         style="fill:#e8b09f;fill-opacity:1;fill-rule:evenodd;stroke:none"
         d="m 137.19119,18.811905 c 1.415,1.4922 3.0523,2.7131 4.0847,5.061 1.3158,2.9925 1.2787,5.021 1.1109,8.3021 -0.1128,-0.0564 -0.2614,-0.0269 -0.3257,-0.1928 l -1.0613,-0.8067 c -2.5994,-2.6084 -2.6592,-6.1121 -2.8094,-8.6706 -0.1032,-1.7592 -0.6287,-2.2805 -0.9992,-3.693" /><path
         inkscape:connector-curvature="0"
         id="path152"
         style="fill:#000000;fill-opacity:1;fill-rule:evenodd;stroke:none"
         d="m 49.460292,70.155605 c 0.6378,1.1134 0.4686,-0.5661 -0.1165,0.521 l -0.2276,0.191 c 1.5006,-0.1374 1.3405,-0.4467 2.3695,-0.007 -0.7266,1.3547 0.0824,0.3014 -1.5373,1.2357 -2.6056,1.5029 -2.0579,2.6209 -4.8588,2.1829 -0.6591,-1.0491 -0.8479,-2.4514 -1.2178,-4.0056 -0.661,-2.7777 -1.3014,-0.6826 -2.0648,-3.1244 1.4222,0.6891 1.696,1.1634 3.5947,1.882 1.3008,0.492 2.6342,0.9025 4.0586,1.1242" /><path
         inkscape:connector-curvature="0"
         id="path154"
         style="fill:#000000;fill-opacity:1;fill-rule:evenodd;stroke:none"
         d="m 114.16869,101.28451 c 1.1991,0.3736 2.202,0.5902 3.3038,1.1007 1.264,0.5856 1.9704,1.2969 3.1589,1.7731 l -0.5434,-2.5722 0.7132,-0.0541 c 0.5752,2.4891 1.3607,3.5393 2.0492,5.4853 -3.5898,-0.9558 -0.1001,-2.1591 -11.5291,-5.1075 -0.2916,-0.0751 -0.6304,-0.1451 -0.9048,-0.2534 l -1.0205,-0.5933 c 1.5055,-0.9598 2.7434,-0.2344 4.7727,0.2214" /><path
         inkscape:connector-curvature="0"
         id="path156"
         style="fill:#000000;fill-opacity:1;fill-rule:evenodd;stroke:none"
         d="m 67.195792,56.698705 c -0.0734,0.7727 -1.0958,3.433 -1.6154,4.3628 -1.8624,-0.1894 -2.5569,-2.0999 -2.8052,-4.127 -0.3175,-2.5929 0.5774,-3.4614 2.2703,-4.2919 -0.7195,1.2376 -0.8657,1.2832 -0.8552,3.1107 z" /><path
         inkscape:connector-curvature="0"
         id="path158"
         style="fill:#000000;fill-opacity:1;fill-rule:evenodd;stroke:none"
         d="m 55.268492,57.917305 c 4.2437,3.0387 1.1594,6.2495 3.5164,10.0162 1.4023,2.2408 4.3265,4.5283 6.2441,6.1622 -1.7149,-0.6162 -2.4142,-1.2994 -3.8412,-2.2589 -7.9333,-5.3362 -2.8134,-9.4776 -5.9193,-13.9195" /><path
         inkscape:connector-curvature="0"
         id="path160"
         style="fill:#000000;fill-opacity:1;fill-rule:evenodd;stroke:none"
         d="m 91.925592,78.672505 -0.3073,-2.5676 -1.9276,-1.5834 c -0.0346,0.0731 -0.1567,-0.1639 -0.2284,-0.2514 3.571,0.3642 2.3351,2.2303 5.6911,0.3486 1.8524,0.01 0.9113,-0.208 2.0809,0.7608 0.6664,1.5387 0.3135,0.9417 0.43,2.3684 0.1392,1.6994 -0.0232,0.6253 0.3946,1.7668 l -2.7233,0.7362 c -2.3856,-0.0851 -2.1367,0.1633 -3.41,-1.5784" /><path
         inkscape:connector-curvature="0"
         id="path162"
         style="fill:#000000;fill-opacity:1;fill-rule:evenodd;stroke:none"
         d="m 78.231692,62.488705 c -0.2611,-1.3799 0.3869,-3.5753 1.1871,-4.1811 1.734,-1.3122 1.5758,1.8505 1.9075,2.6495 1.9337,-0.4597 2.1299,-1.2662 3.8114,-3.2796 -0.3067,1.7067 -1.2024,3.1144 -2.211,4.1298 -1.5182,1.5284 -2.5158,1.2996 -4.695,0.6814" /><path
         inkscape:connector-curvature="0"
         id="path164"
         style="fill:#000000;fill-opacity:1;fill-rule:evenodd;stroke:none"
         d="m 20.938892,94.691105 -1.1423,-2.0574 c 1.453,0.2433 2.3938,0.8278 4.1105,1.0834 1.6526,0.2464 3.3055,0.2169 4.9788,0.1664 l 0.0119,1.323 c -3.4645,0.0116 -5.1863,-0.2846 -7.9589,-0.5154" /><path
         inkscape:connector-curvature="0"
         id="path166"
         style="fill:#000000;fill-opacity:1;fill-rule:evenodd;stroke:none"
         d="m 55.499192,93.257405 -0.1913,-2.0404 c 1.0961,0.6707 1.4559,1.3549 2.4641,2.2292 0.8306,0.7197 1.6784,1.2747 2.765,1.9159 l 0.0949,-0.2387 c 0.4536,2.4588 0.2466,1.2348 -0.627,1.6175 -1.7045,-1.5418 -3.0294,-1.3689 -4.5057,-3.4835" /><path
         inkscape:connector-curvature="0"
         id="path168"
         style="fill:#000000;fill-opacity:1;fill-rule:evenodd;stroke:none"
         d="m 41.465692,78.917205 c -0.3911,-0.544 -0.354,-0.4916 -1.0692,-0.7339 l 0.2027,-0.7248 c 2.2411,-0.1622 2.4667,1.5485 6.6756,1.36 0.4368,0.4077 0.3396,-0.8144 0.3727,1.194 l -0.1428,-0.2486 c -2.825,1.0531 -3.854,-0.0388 -6.039,-0.8467" /><path
         inkscape:connector-curvature="0"
         id="path170"
         style="fill:#000000;fill-opacity:1;fill-rule:evenodd;stroke:none"
         d="m 37.364592,77.511805 -0.2245,-0.0468 -1.1563,0.1295 c 0.3867,-1.7163 2.5093,-3.7975 5.0596,-4.1462 -0.4811,3.2012 -1.9851,0.6797 -3.6788,4.0635" /><path
         inkscape:connector-curvature="0"
         id="path172"
         style="fill:#000000;fill-opacity:1;fill-rule:evenodd;stroke:none"
         d="m 84.060792,98.104605 4.3501,-1.4992 -0.2007,1.4051 -4.3838,1.7076 c 0.0139,-1.4241 -0.2018,-0.6599 0.2344,-1.6135" /><path
         inkscape:connector-curvature="0"
         id="path174"
         style="fill:#222222;fill-opacity:1;fill-rule:evenodd;stroke:none"
         d="m 10.790092,90.969505 -0.0905,-0.0584 -0.0249,-1.6001 c 2.1671,0.2049 1.4576,-0.129 1.7493,1.6512 l -1.6339,0.007 z" /><path
         inkscape:connector-curvature="0"
         id="path176"
         style="fill:#dedede;fill-opacity:1;fill-rule:evenodd;stroke:none"
         d="m 28.858892,93.896005 c 1.6784,-2.8505 6.9514,-7.5574 10.7813,-7.8599 1.3816,-0.1091 4.5783,0.6228 4.2546,2.1501 -2.0526,0.8648 -4.54,0.7234 -6.465,4.1958 -0.8155,1.4709 -1.0568,3.185 -0.6639,4.7291 0.3702,1.4539 1.3691,2.3241 1.7116,3.665705 -0.8714,0.4558 -1.4763,0.5346 -2.2649,1.3984 2.8627,-0.4913 3.8766,-1.3853 7.6561,-0.8791 -0.1344,0.8227 1.3745,0.6242 3.5076,1.6277 1.1066,0.5207 2.2243,1.1537 2.8984,1.9207 1.0687,1.2164 2.0523,2.7335 2.4795,4.2069 0.5961,2.0552 0.1442,1.1552 0.7531,1.6773 l -0.0655,0.275 c 0.872,-0.3997 0.4978,-0.4187 1.4596,-0.5165 0.235,0.3013 -0.2755,0.2662 0.5717,-0.01 l 2.5847,-0.8306 c 6.2878,-1.6965 14.0235,0.0987 18.3373,4.3231 2.8196,2.7613 2.1878,4.1301 2.8772,6.1509 l 0.3838,-1.4496 c 0.2449,-0.2268 0.1621,0.4153 0.3152,-0.6928 0.0195,-0.1426 -0.0303,-0.8028 -0.0618,-1.0358 -0.0836,-0.6208 -0.2242,-1.1412 -0.4031,-1.7864 0.8722,-0.0184 2.0347,-1.2815 4.3963,-2.2663 7.7006,-3.2105 11.251,-0.3679 16.630498,1.7122 -0.3452,-0.5434 -0.660398,-1.1282 -1.335098,-1.5245 0.7722,-0.4397 -0.4827,-1.4944 -0.7472,-1.906 -1.9253,-2.9962 -2.9883,-2.8721 -5.8323,-4.7778 l 0.0216,-0.8819 c -0.0825,-1.4102 0.7047,-3.1819 1.0499,-4.583 1.6019,-0.4147 3.2565,-0.941105 5.4579,-0.527 3.527098,0.6636 8.643398,4.3778 7.083998,9.9737 -0.4768,1.7104 -0.7367,1.2963 -2.099,0.7787 -0.6231,1.3124 2.8255,2.7777 2.3173,8.5365 -0.6543,0.3889 -1.3298,2.2317 -2.4503,3.805 -4.613698,6.4783 -14.260798,7.0784 -21.196898,3.7757 -3.4588,-1.6469 -4.4609,-3.4021 -6.611,-5.4023 -1.5678,0.6135 -2.6543,2.1668 -6.3748,3.4671 -2.3913,0.8357 -5.0272,1.3377 -8.1496,0.7265 -5.1242,-1.0032 -11.0962,-5.6919 -12.1572,-9.0314 -3.8583,-0.5301 -6.3275,-0.3895 -9.9179,-2.2488 -2.6946,-1.3955 -4.8112,-3.2816 -6.3244,-5.163 -2.5177,-3.1303 -4.2568,-6.7748 -4.4668,-11.106405 -0.0893,-1.8442 0.2602,-3.617 0.2117,-4.1219 -0.0717,-0.7435 0.2112,0.053 -0.1542,-0.4952" /><path
         inkscape:connector-curvature="0"
         id="path178"
         style="fill:#fefefe;fill-opacity:1;fill-rule:evenodd;stroke:none"
         d="m 28.858892,93.896005 c 0.3654,0.5482 0.0825,-0.2483 0.1542,0.4952 0.0485,0.5049 -0.301,2.2777 -0.2117,4.1219 0.21,4.331605 1.9491,7.976105 4.4668,11.106405 1.5132,1.8814 3.6298,3.7675 6.3244,5.163 3.5904,1.8593 6.0596,1.7187 9.9179,2.2488 1.061,3.3395 7.033,8.0282 12.1572,9.0314 3.1224,0.6112 5.7583,0.1092 8.1496,-0.7265 3.7205,-1.3003 4.807,-2.8536 6.3748,-3.4671 2.1501,2.0002 3.1522,3.7554 6.611,5.4023 6.9361,3.3027 16.5832,2.7026 21.196898,-3.7757 1.1205,-1.5733 1.796,-3.4161 2.4503,-3.805 -1.976,13.7634 -19.964398,19.0871 -29.266298,14.9275 -2.0075,-0.898 -2.9259,-2.1086 -4.1828,-3.086 0.6809,-1.0874 1.5159,-1.3998 2.0024,-2.9603 -1.8802,1.4015 -1.4406,2.6825 -7.6777,4.0822 -8.166,1.8329 -17.5167,-2.2938 -22.0487,-9.2078 -0.487,-0.7426 -0.7285,-1.0235 -1.1041,-1.8303 -0.3469,-0.7449 -0.5091,-1.563 -0.9683,-2.1058 -0.1054,2.7677 0.8654,3.8434 1.4247,5.7806 -3.363,-0.9189 -7.6666,-2.5639 -10.1021,-4.4549 -5.2586,-4.0827 -8.7628,-9.3484 -9.1607,-16.2436 -0.2228,-3.8639 1.3359,-7.907605 3.4922,-10.696305" /><path
         inkscape:connector-curvature="0"
         id="path180"
         style="fill:#fefefe;fill-opacity:1;fill-rule:evenodd;stroke:none"
         d="m 45.812992,90.988505 c -0.957,-5.8943 -4.3155,-6.3606 -0.3878,-8.2834 1.8541,0.8921 3.7428,1.2087 4.9966,2.274 6.5962,5.6026 14.4799,11.6195 22.6905,13.2312 18.9298,2.622905 27.679198,-21.9299 18.6089,4.947605 -0.3232,0.2608 -0.3518,-0.2812 -0.5344,0.5865 l -4.2635,-1.7441 c -2.0634,1.4624 -2.0654,0.028 -4.7404,1.595 -2.772,1.6237 -2.78,2.9826 -3.676,2.3332 l 0.22,-1.5573 -0.3042,0.4325 c -0.7359,0.0238 -0.8592,-0.343 -2.5656,-1.4167 -2.9741,-1.8723 -4.8081,-2.8449 -8.9819,-2.8228 -2.4069,0.0125 -2.9846,0.4128 -4.983,0.7101 -0.0547,0.008 -0.1165,0.0111 -0.1709,0.021 -0.0545,0.009 -0.116,0.017 -0.1695,0.0289 -0.0528,0.0119 -0.1131,0.0249 -0.1647,0.0394 -1.4097,0.3915 -3.7109,1.715 -4.9768,2.2544 l -0.3595,-0.5562 c -2.1775,-3.787905 -4.3268,-8.496205 -8.2845,-10.807305 -0.3838,-0.224 -0.754,-0.3456 -1.0607,-0.5168 l -0.7447,-0.5851 c -0.0465,0.0437 -0.1017,-0.1068 -0.1479,-0.1641" /><path
         inkscape:connector-curvature="0"
         id="path182"
         style="fill:#000000;fill-opacity:1;fill-rule:evenodd;stroke:none"
         d="m 49.765292,83.730705 c 10.9749,7.2692 18.6837,16.706305 31.936,12.3378 4.661,-1.5367 4.9847,-1.7053 8.9036,-3.9444 0.6032,-0.3444 0.8521,-0.4003 1.4851,-0.7957 0.6202,-0.3872 0.8898,-0.4326 1.4592,-0.743 0.1803,1.0891 -0.7679,1.2408 -1.6693,1.8131 -0.6636,0.4215 -1.5534,1.0074 -2.0954,1.4805 -0.6009,0.2574 -0.7106,0.4598 -1.3243,0.8113 -14.4666,8.282505 -27.6911,1.6988 -39.7256,-9.5681 0.0587,-1.2078 -1.1143,-1.0879 -1.4553,-1.525 -0.1862,-0.239 -2.1963,-1.2135 -2.2153,0.2219 0.5865,2.5549 0.36,4.7741 0.749,7.1694 -0.3067,4.1806 -0.5803,5.3748 -1.9182,9.330505 1.8136,0.4318 1.3577,0.3291 1.7002,-0.449505 l 1.0536,-3.57 c 0.2906,0.724 0.1463,1.5508 0.0377,2.3516 -0.1015,0.747 -0.2744,1.480005 -0.3625,2.217305 1.6565,0.7342 2.527,1.2932 3.8931,2.0168 0.3254,-1.7489 0.1511,-5.426605 0.7543,-5.962605 0.2157,1.7779 -0.2971,4.926905 -0.019,6.364005 0.1547,0.8 1.3549,1.5528 2.1118,3.3996 0.4836,1.1806 0.108,0.9581 -0.0445,1.0219 -0.0287,-0.6148 -0.1347,-0.61 -0.5806,-1.1823 -2.4224,-3.1105 -2.5633,-3.9535 -8.5702,-5.2297 -3.7795,-0.5062 -4.7931,0.3875 -7.6561,0.8791 0.7886,-0.8638 1.3935,-0.9426 2.2649,-1.3984 1.4788,-0.2576 2.2277,-0.5575 3.8908,-0.5652 0.7807,-2.182405 1.3275,-3.783105 1.6277,-6.183505 0.2165,-1.7334 0.5587,-4.4796 -0.1012,-5.8419 0.3237,-1.5273 -2.873,-2.2592 -4.2546,-2.1504 -3.8299,0.3028 -9.1029,5.0097 -10.7813,7.8602 -2.1563,2.7887 -3.715,6.832405 -3.4922,10.696305 0.3979,6.8952 3.9021,12.1609 9.1607,16.2436 2.4355,1.891 6.7391,3.536 10.1021,4.4552 -0.5593,-1.9377 -1.5301,-3.0132 -1.425,-5.7809 0.4592,0.5428 0.6214,1.3609 0.9686,2.1058 0.3756,0.8068 0.6171,1.0877 1.1041,1.8303 4.5323,6.9143 13.8827,11.0407 22.0487,9.2078 6.2368,-1.3997 5.7975,-2.6807 7.6777,-4.0822 -0.4865,1.5602 -1.3215,1.8729 -2.0024,2.9603 1.2569,0.9774 2.1753,2.188 4.1831,3.086 9.3013,4.1596 27.289998,-1.1639 29.265998,-14.9275 0.508,-5.7588 -2.9404,-7.2241 -2.3173,-8.5368 l 1.7614,2.389 c 1.6787,-0.9955 2.6093,-3.4687 2.257,-5.807 -0.7444,-4.9388 -6.9755,-11.062805 -13.977098,-8.415505 l -0.4842,1.608405 c -0.3452,1.4011 -1.1324,3.1725 -1.0499,4.583 -0.1973,0.2288 -0.0658,-0.0232 -0.2651,0.4575 -0.2987,0.7198 0.1018,-0.4031 -0.1264,0.3719 -0.0745,0.2535 -0.1602,0.7739 -0.2208,1.0616 -0.1491,0.7044 -0.3093,1.3694 -0.4348,2.084 1.1973,0.3739 2.2206,0.3884 3.2521,0.9902 l 0.317,0.2304 c -0.9162,-0.2009 -2.4608,-0.7849 -3.3441,-0.3999 -1.9604,-0.7781 -5.6313,-0.1191 -7.3454,0.3934 -2.01,0.601 -4.5422,1.6716 -5.4952,3.2499 l 0.5289,1.2056 c 0.1792,0.6446 0.3195,1.1651 0.4031,1.7861 0.0315,0.233 0.0813,0.8932 0.0618,1.0358 -0.1531,1.1081 -0.0706,0.466 -0.3155,0.6928 0.756,-2.0339 -1.7799,-5.362 -2.884,-6.4089 -1.675,-1.5879 -4.2607,-3.0214 -6.8255,-3.7723 -3.0739,-0.8997 -5.7331,-0.9745 -8.564,-0.4527 -1.5792,0.2911 -5.8567,1.6719 -6.4809,2.45 -0.9618,0.0981 -0.5873,0.1168 -1.4598,0.5165 l 0.0657,-0.2747 0.0808,-0.2475 3.5257,-2.2776 c 1.298,-0.7614 2.3919,-1.0517 3.8914,-1.5506 l 0.4652,-2.8176 0.2271,-0.2276 -0.082,2.9253 c 3.316,-0.0717 3.854,-0.3413 7.5685,0.4972 l 0.7345,-3.6323 0.3784,0.0618 -0.4824,3.7417 c 1.3311,0.7113 2.6538,1.027 4.0637,1.8627 1.2994,0.7704 2.2751,1.7453 3.2729,2.3238 l 1.2716,-6.5846 0.3042,-0.4325 -0.22,1.5573 c -0.3518,1.9786 -1.0307,5.0423 -0.508,6.791 1.3068,-0.0255 1.7173,-1.5543 5.4295,-2.7771 0.6738,-0.2223 1.3445,-0.2852 1.9313,-0.6163 0.2517,-0.9799 0.4036,-1.9644 0.6157,-2.9562 0.1666,-0.7798 0.2488,-1.9551 0.8467,-2.4951 -0.7107,1.6019 -0.6495,3.6641 -0.9644,5.4817 l 4.3625,-0.0451 1.501,-6.1535 c 1.307,-3.924505 0.9516,-4.269805 2.12,-8.312305 0.6715,-2.323 -1.0052,-1.8487 0.4343,-3.359 1.6203,-4.0933 1.3819,1.7923 0.8149,3.6141 -0.5275,1.9378 0.3496,-0.1757 -0.083,1.9097 3.5229,-1.4295 7.390798,0.22 10.299998,2.7255 2.3366,2.012605 4.5609,5.470305 4.6593,8.799605 0.0195,0.6747 -0.0159,1.2606 -0.0981,1.7791 l -0.1315,0.6332 c -0.497,1.9083 -1.7207,2.8106 -3.0583,4.1233 2.6926,6.6365 -0.8828,13.2072 -5.8731,16.9007 -3.509098,2.5971 -5.955898,3.7829 -10.414298,4.9782 -2.033,0.5448 -4.011,0.798 -6.3952,0.8178 -4.0085,0.0332 -8.3577,-1.1718 -11.018,-4.2267 -0.4405,-0.5063 -0.4986,-0.758 -0.9399,-1.2076 -0.9976,0.0564 -4.398,2.5299 -11.2658,2.0129 -0.1505,-0.0113 -0.2982,-0.0241 -0.4456,-0.0377 l -5.6758,-1.1778 c -6.3683,-2.2107 -8.3506,-6.4973 -9.9626,-6.9264 -5.3538,-1.425 -8.0448,-1.8049 -12.9031,-5.7606 -0.3478,-0.2829 -0.6089,-0.5599 -1.0641,-0.9431 -4.4989,-3.7879 -7.6354,-11.3862 -7.1716,-17.5484 0.0138,-0.1809 0.0345,-0.364 0.0589,-0.5477 l 0.3458,-1.665905 c 2.359,-8.4583 13.8697,-18.8433 19.5333,-14.5205 -0.0604,-2.4721 1.2949,-3.4206 6.2776,-1.4876" /><path
         inkscape:connector-curvature="0"
         id="path184"
         style="fill:#dedede;fill-opacity:1;fill-rule:evenodd;stroke:none"
         d="m 53.019492,107.70841 c 0.1525,-0.0641 0.5281,0.1584 0.0445,-1.0219 -0.7566,-1.8471 -1.9571,-2.5999 -2.1118,-3.3999 -0.2781,-1.4371 0.2344,-4.586105 0.019,-6.364005 -0.6032,0.5357 -0.4289,4.213905 -0.7543,5.962605 -1.3661,-0.7236 -2.2369,-1.2826 -3.8931,-2.0168 0.0881,-0.7373 0.261,-1.470305 0.3625,-2.217305 0.1086,-0.8008 0.2531,-1.6276 -0.0377,-2.3516 l -1.0539,3.57 c -0.3422,0.778405 0.1134,0.881305 -1.6999,0.449305 1.3379,-3.955505 1.6115,-5.149505 1.9182,-9.330305 0.0462,0.0573 0.1014,0.2078 0.1479,0.1641 l 0.7447,0.5851 c 0.3067,0.1712 0.6769,0.2928 1.0607,0.5168 3.958,2.3111 6.107,7.0194 8.2845,10.807305 l 0.3595,0.5562 c 1.2659,-0.5394 3.5671,-1.8626 4.9768,-2.2544 0.0516,-0.0145 0.1119,-0.0278 0.1647,-0.0394 0.0535,-0.0119 0.115,-0.0196 0.1695,-0.0292 0.0544,-0.01 0.1162,-0.0125 0.1709,-0.0207 1.9984,-0.2976 2.5761,-0.6976 4.983,-0.7104 4.1738,-0.0218 6.0075,0.9508 8.9822,2.8231 1.7064,1.074 1.8294,1.4408 2.5653,1.417 l -1.2719,6.5843 c -0.9978,-0.5785 -1.9732,-1.5534 -3.2726,-2.3238 -1.4099,-0.8357 -2.7329,-1.1514 -4.0637,-1.8627 l 0.4824,-3.7417 0.0797,-1.0222 c -0.3671,0.2517 -0.3736,0.582 -0.4578,0.9604 l -0.7348,3.6323 c -3.7145,-0.8385 -4.2525,-0.5689 -7.5685,-0.4972 l 0.082,-2.9253 -0.1021,-2.1266 c -0.163,0.4008 -0.2347,0.8124 -0.2673,1.1954 -0.0468,0.5476 -0.0714,0.1185 -0.0247,0.5559 0.0749,0.6993 0.0825,0.3792 0.167,0.6026 l -0.4652,2.8177 c -1.4992,0.4991 -2.5934,0.7894 -3.8914,1.5508 l -3.5257,2.2773 c 0.7866,-1.7861 -0.2047,-2.0015 -0.5686,-2.7728" /><path
         inkscape:connector-curvature="0"
         id="path186"
         style="fill:#dedede;fill-opacity:1;fill-rule:evenodd;stroke:none"
         d="m 78.507192,105.92851 c 0.8957,0.6494 0.9037,-0.7095 3.6757,-2.3335 2.675,-1.567 2.677,-0.1323 4.7404,-1.5947 l 4.2638,1.7441 c 0.1823,-0.8677 0.2109,-0.3257 0.5338,-0.5865 l -1.5007,6.1535 -4.3625,0.0453 c 0.3149,-1.8178 0.2537,-3.88 0.9644,-5.4819 -0.5981,0.5403 -0.6798,1.7153 -0.8467,2.4948 -0.2121,0.9921 -0.3637,1.9766 -0.6157,2.9565 -0.5868,0.3311 -1.2575,0.394 -1.9313,0.616 -3.7125,1.2231 -4.1227,2.7519 -5.4295,2.7777 -0.5229,-1.749 0.1562,-4.813 0.5083,-6.7913" /><path
         inkscape:connector-curvature="0"
         id="path188"
         style="fill:#dedede;fill-opacity:1;fill-rule:evenodd;stroke:none"
         d="m 50.779492,89.121605 c 10.3768,9.7152 27.0766,12.779205 39.5504,5.6376 0.5293,-0.3028 0.6237,-0.4774 1.1418,-0.6993 0.0995,0.7973 0.0125,0.2843 0.3949,0.9311 l -3.6712,1.8264 c -0.6358,0.269 -1.4331,0.2273 -0.3557,0.3838 -0.2744,1.3229 0.003,0.3682 -0.4774,0.6585 -0.1627,-0.3866 0.4465,-0.4861 -0.4699,-0.2443 -0.006,0.002 -0.5006,0.259 -0.6157,0.3123 -2.4523,1.135 -6.8386,2.313105 -9.5777,2.0089 l 0.7427,0.158205 c -0.639,0.3697 -1.5027,-0.0765 -2.3157,-0.235805 -0.765,-0.1503 -1.4754,-0.0859 -2.2654,-0.1066 -7.261,-0.1908 -14.8402,-3.1952 -20.2187,-7.7638 -1.0811,-0.9184 -1.8493,-1.6339 -2.7309,-2.6116 -3.1785,-3.6924 3.1853,1.3374 0.8685,-0.2554" /><path
         inkscape:connector-curvature="0"
         id="path190"
         style="fill:#bdbdbd;fill-opacity:1;fill-rule:evenodd;stroke:none"
         d="m 43.894792,88.186205 c 0.6599,1.3623 0.3177,4.1085 0.1012,5.8419 -0.3002,2.4004 -0.847,4.0011 -1.6277,6.183505 -1.6631,0.008 -2.412,0.3076 -3.8908,0.5652 -0.3425,-1.341605 -1.3414,-2.211805 -1.7116,-3.665705 -0.3929,-1.5441 -0.1516,-3.2582 0.6639,-4.7291 1.925,-3.4724 4.4124,-3.331 6.465,-4.1958" /><path
         inkscape:connector-curvature="0"
         id="path192"
         style="fill:#fefefe;fill-opacity:1;fill-rule:evenodd;stroke:none"
         d="m 54.901392,110.48721 c 0.6239,-0.7781 4.9017,-2.1589 6.4806,-2.45 2.8312,-0.5218 5.4904,-0.447 8.5643,0.4527 2.5648,0.7509 5.1505,2.1841 6.8255,3.7723 1.1041,1.0469 3.64,4.375 2.8843,6.4089 l -0.3838,1.4496 c -0.6894,-2.0208 -0.0576,-3.3896 -2.8772,-6.1509 -4.3138,-4.2244 -12.0495,-6.0196 -18.3373,-4.3231 l -2.5847,0.8306 c -0.8472,0.2761 -0.3367,0.3112 -0.5717,0.01" /><path
         inkscape:connector-curvature="0"
         id="path194"
         style="fill:#bdbdbd;fill-opacity:1;fill-rule:evenodd;stroke:none"
         d="m 104.13299,111.15421 c 1.3623,0.5176 1.6222,0.9317 2.099,-0.7787 1.5594,-5.5959 -3.5569,-9.3101 -7.083998,-9.9737 -2.2014,-0.414105 -3.856,0.1123 -5.4579,0.527 l 0.4842,-1.608405 c 7.001598,-2.6473 13.232698,3.476705 13.977098,8.415505 0.3526,2.3383 -0.5786,4.8115 -2.257,5.807 z" /><path
         inkscape:connector-curvature="0"
         id="path196"
         style="fill:#fefefe;fill-opacity:1;fill-rule:evenodd;stroke:none"
         d="m 91.818092,110.30751 c 2.8619,0.8141 5.0794,0.8626 7.38,2.77 0.6747,0.3963 0.989898,0.9811 1.335098,1.5245 -5.379498,-2.0801 -8.929898,-4.9227 -16.630498,-1.7122 -2.3616,0.9848 -3.5241,2.2479 -4.3963,2.2663 l -0.5289,-1.2053 c 0.953,-1.5783 3.4852,-2.6489 5.4952,-3.2499 1.7141,-0.5125 5.385,-1.1715 7.3454,-0.3934" /><path
         inkscape:connector-curvature="0"
         id="path198"
         style="fill:#bdbdbd;fill-opacity:1;fill-rule:evenodd;stroke:none"
         d="m 91.818092,110.30751 c 0.8833,-0.385 2.4279,0.199 3.3441,0.3999 l -0.3167,-0.2304 c -1.0318,-0.6018 -2.0554,-0.6163 -3.2524,-0.9902 0.1258,-0.7143 0.2857,-1.3799 0.4345,-2.084 0.0609,-0.2877 0.1466,-0.8081 0.2211,-1.0616 0.2282,-0.775 -0.1721,0.3481 0.1264,-0.3721 0.1993,-0.4805 0.0678,-0.2285 0.2651,-0.4573 l -0.0216,0.8819 c 2.844,1.9057 3.907,1.7816 5.8323,4.7778 0.2645,0.4116 1.5194,1.4663 0.7472,1.906 -2.3006,-1.9074 -4.5181,-1.9559 -7.38,-2.77" /><path
         inkscape:connector-curvature="0"
         id="path200"
         style="fill:#fefefe;fill-opacity:1;fill-rule:evenodd;stroke:none"
         d="m 43.868692,101.29611 c 6.0069,1.2762 6.1478,2.1192 8.5705,5.2297 0.4456,0.5723 0.5516,0.5672 0.5803,1.1826 0.3639,0.7713 1.3552,0.9867 0.5686,2.7728 l -0.0808,0.2475 c -0.6089,-0.5221 -0.157,0.3779 -0.7531,-1.6773 -0.4272,-1.4734 -1.4108,-2.9905 -2.4795,-4.2069 -0.6741,-0.767 -1.7918,-1.4 -2.8984,-1.9207 -2.1331,-1.0035 -3.642,-0.805 -3.5076,-1.6277" /><path
         inkscape:connector-curvature="0"
         id="path202"
         style="fill:#313131;fill-opacity:1;fill-rule:evenodd;stroke:none"
         d="m 87.332592,97.053805 c -0.7759,0.1188 -6.2493,3.371305 -11.5056,2.592 l -0.8611,-0.1834 c 3.1765,0.3526 8.2638,-1.0134 11.1075,-2.3298 0.1338,-0.0618 0.7073,-0.3603 0.7144,-0.3623 1.0627,-0.2806 0.3563,-0.1649 0.5448,0.2835" /><path
         inkscape:connector-curvature="0"
         id="path204"
         style="fill:#696969;fill-opacity:1;fill-rule:evenodd;stroke:none"
         d="m 61.697492,103.60811 -0.2271,0.2273 c -0.0845,-0.2234 -0.0921,0.0967 -0.167,-0.6026 -0.0467,-0.4374 -0.0221,-0.008 0.0247,-0.5559 0.0326,-0.383 0.1043,-0.7946 0.2673,-1.1954 z" /><path
         inkscape:connector-curvature="0"
         id="path206"
         style="fill:#696969;fill-opacity:1;fill-rule:evenodd;stroke:none"
         d="m 70.296892,103.46011 -0.3781,-0.0618 c 0.0842,-0.3784 0.0907,-0.7087 0.4578,-0.9604 z" /></g></g></svg>